<?xml version="1.0" encoding="UTF-8" standalone="no"?>
<svg
   xmlns:dc="http://purl.org/dc/elements/1.1/"
   xmlns:cc="http://creativecommons.org/ns#"
   xmlns:rdf="http://www.w3.org/1999/02/22-rdf-syntax-ns#"
   xmlns:svg="http://www.w3.org/2000/svg"
   xmlns="http://www.w3.org/2000/svg"
   xmlns:sodipodi="http://sodipodi.sourceforge.net/DTD/sodipodi-0.dtd"
   xmlns:inkscape="http://www.inkscape.org/namespaces/inkscape"
   width="3.2800002in"
   height="5.583323in"
   viewBox="0 0 983.99898 1674.997"
   version="1.1"
   id="svg834"
   sodipodi:docname="samuelLynchSmooth 2.svg"
   inkscape:version="1.0.1 (c497b03c, 2020-09-10)">
  <metadata
     id="metadata840">
    <rdf:RDF>
      <cc:Work
         rdf:about="">
        <dc:format>image/svg+xml</dc:format>
        <dc:type
           rdf:resource="http://purl.org/dc/dcmitype/StillImage" />
        <dc:title />
      </cc:Work>
    </rdf:RDF>
  </metadata>
  <defs
     id="defs838" />
  <sodipodi:namedview
     pagecolor="#ffffff"
     bordercolor="#666666"
     borderopacity="1"
     objecttolerance="10"
     gridtolerance="10"
     guidetolerance="10"
     inkscape:pageopacity="0"
     inkscape:pageshadow="2"
     inkscape:window-width="1440"
     inkscape:window-height="776"
     id="namedview836"
     showgrid="false"
     inkscape:zoom="1.2647282"
     inkscape:cx="12.322463"
     inkscape:cy="479.85999"
     inkscape:window-x="0"
     inkscape:window-y="25"
     inkscape:window-maximized="0"
     inkscape:current-layer="svg834"
     inkscape:document-rotation="0" />
  <path
     id="rect893"
     style="fill:#ffffff;fill-rule:evenodd;stroke-width:3.22932"
     d="M -9.8054291e-4,0 H 983.99911 V 1674.9969 H -9.8054291e-4 Z" />
  <path
     id="Selection #2"
     style="fill:#000000;stroke-width:3.125"
     d="M 19.998869,19.9996 V 1654.9973 H 963.99921 V 19.9996 Z m 20.00122,20.00122 H 943.99801 V 1635.0022 H 40.000089 Z M 683.43891,59.80063 c -23.514,7.41941 -25.5008,33.6512 -26.2125,0.20142 -54.60806,-0.192142 -38.596,41.99491 -57.2287,64.99634 -8.6107,3.08558 -5.4344,38.37212 -4.9988,53.7759 0.3774,29.92984 0.1038,35.10555 17.9993,50.22801 4.4071,-35.72504 20.5415,44.87431 15.0024,2.99683 14.4711,28.29132 80.7054,37.78255 26.9959,13.34839 -22.1619,-30.82016 -37.9783,-74.71756 -31.7342,-114.87783 7.4286,-12.63837 12.0295,-71.04995 13.8997,-19.47276 8.7732,27.28655 3.477,56.16077 10.8399,84.00269 -18.3778,0.48261 24.2165,57.56064 42.9992,59.00269 11.7359,38.27634 24.9297,-22.81617 48.999,15.47851 30.0452,43.07671 61.21,-20.47603 57.7359,-31.40674 5.0832,3.10093 58.2309,-68.18353 46.7702,-85.00917 14.977,-21.47065 -14.401,-9.58545 25.297,-34.68434 38.0089,-15.82754 17.7488,69.63685 30.9269,67.59805 26.5747,38.54797 -22.4749,35.80248 -22.4849,58.34655 14.8053,40.15045 -12.513,12.23802 -11.388,58.24802 -17.9805,41.17478 -20.4801,72.72954 -34.391,113.72054 -9.351,40.35401 -11.1065,-10.61803 -34.357,14.13391 6.9047,30.03553 -4.5578,101.88632 -41.3686,51.8735 -29.2943,-5.51368 -6.617,-25.81975 -38.6342,-28.18225 -19.6884,-0.54584 -40.103,2.2781 -59.106,-3.1195 -14.55,-1.74872 -74.4041,-31.2471 -104.5852,-18.93769 -4.66285,-49.62678 -25.53063,9.90469 -59.90745,-2.36487 -16.649,-46.11013 -58.64391,16.37344 -90.07707,1.96725 -19.07685,3.67137 -18.37272,-4.15125 -53.43204,6.33484 58.37495,-20.54053 -11.89903,-9.434 -32.83365,-30.82938 -9.85142,5.87316 20.11812,30.00854 -18.14291,12.43947 -22.37053,-19.15194 34.11681,-21.47356 -5.02319,-26.61131 6.63667,-20.71353 71.71119,-7.94244 14.00147,-27.99685 27.52866,-4.92109 26.66422,-6.94594 13.13905,-8.09462 -3.10898,-52.45297 -53.71542,-11.23493 -76.16977,-33.92744 -30.85507,-5.29765 -30.3612,-54.08411 -40.49221,-59.66338 21.75069,-35.40921 -38.5217,-23.21471 -23.90245,-35.73786 32.28769,-22.53559 -5.57031,-25.8072 16.49853,-45.46968 8.18867,-27.59386 -12.04368,-84.44805 48.32308,-67.61973 10.44602,-52.1021 1.38517,-55.42788 -59.58824,-54.48609 H 60.001309 V 1129.0024 H 249.99767 c -43.42416,-28.5175 -59.83966,-86.8193 -80.00357,-133.92629 -10.32471,-37.1883 -38.10477,-123.2855 8.97262,-124.5874 21.8882,96.4916 45.46146,205.71219 130.03365,257.51269 -3.00478,2.2438 44.5041,0.4011 61.81994,1.001 h 156.17933 c 29.92747,-32.3464 120.00217,-131.80439 100.79417,-62.742 -0.5882,19.5401 -6.2068,49.4138 0.9798,62.742 h 295.2232 V 60.00205 c -65.85348,-2.92679 -22.26019,35.886356 -7.9957,65.99732 -21.8767,-18.97649 -52.6518,-42.88472 -80.9997,-20.00123 39.7999,2.68736 -37.7475,31.91529 0.8579,25.29822 -1.9773,0.97938 -50.1028,58.57534 -68.8572,40.70521 32.0353,-34.21085 61.5102,-56.29013 8.0306,-24.63124 -23.4622,23.19409 -21.9881,8.59563 -15.0313,-15.37121 -15.517,-8.51266 90.5657,-71.30552 24.4358,-44.27941 -40.9519,30.66844 -44.4703,20.06604 -38.6379,3.55411 -24.9775,13.07384 12.5665,-35.03806 -24.7994,-0.27201 -36.0721,-5.83235 -45.2059,66.85296 -21.2227,98.67953 26.5224,53.06988 -50.6616,-21.13598 -31.2001,-47.1803 -8.3451,-24.05833 28.585,-82.44552 14.8618,-82.70041 z m -380.58479,1069.20177 -6.84204,0.098 z M 593.08851,59.98984 c -15.7079,40.6646 -23.5442,55.43104 -19.1237,4.33529 -4.207,-8.19093 -45.55761,-4.08362 -28.18679,5.67448 7.80049,23.26161 -18.98069,45.56196 -20.45682,28.75244 -2.39378,-2.27551 -16.50869,30.21879 -14.80103,-8.75122 13.97472,-62.70557 -34.62679,-1.88896 -20.56113,30.01753 3.94191,58.97544 69.49287,75.15397 89.04257,113.98273 25.3016,-31.72927 -2.2134,-73.58271 8.9966,-110.00368 -2.5605,-17.951 10.372,-54.40481 5.0903,-64.00757 z m -336.0901,0.0122 c 7.30278,14.24587 13.88336,79.32782 14.21812,37.74244 -9.86013,-9.72933 6.85122,-44.58274 -14.21812,-37.74244 z m 48.99902,0 c 3.34418,32.74297 -2.87303,71.03712 21.0022,96.99708 -0.0925,-32.35401 3.36112,-64.62328 1.00098,-96.99708 z m 113.00051,0 c 2.28513,37.23941 16.13791,27.18934 20.84832,36.65043 13.1935,33.80748 11.15997,30.93608 20.15509,-3.65482 2.33153,45.8403 27.03307,12.42129 6.03482,-24.05631 -1.80779,-15.83225 -34.92357,-4.969572 -47.03823,-8.9393 z M 525.99867,91.0018 c -1.13366,2.7349 2.74878,-1.13774 0,0 z M 115.0001,395.34145 c 43.11784,4.05362 77.98717,44.98397 91.39108,75.83601 -24.24038,68.09066 -56.45616,-30.57132 -92.31079,-43.62845 -27.203121,-19.55053 -53.251641,50.55195 -35.797451,-10.88878 7.07378,-13.25703 21.861371,-21.59044 36.717161,-21.31878 z m 729.66921,44.04907 c 46.2727,25.23969 -28.1772,85.35097 -46.6674,113.17138 -15.7696,0.84425 13.5648,46.61401 16.2932,-0.981 8.7327,-39.52028 45.845,-46.37813 20.1564,0.59469 -11.0995,36.89922 -23.6455,70.51731 -46.0305,100.51937 -4.3734,36.80975 -21.9496,68.38265 -28.6582,45.24875 -10.616,-36.0972 54.0854,-64.0828 16.2359,-90.94455 2.6511,25.83872 -25.1008,39.82324 -24.3128,59.96437 -26.8341,3.81088 -61.1777,-11.8241 -35.149,37.33198 28.157,25.9995 45.8454,61.7517 13.6854,93.7071 -25.9436,84.4577 -25.8328,-24.4833 -35.2234,-33.0017 -18.9228,-54.4048 -55.1761,-67.8417 -65.501,-112.35669 -5.0885,4.62885 22.5359,82.75769 -36.0476,68.94379 -42.183,17.2235 -83.41923,-33.0642 -83.84464,-14.0099 -56.6671,16.4905 -16.78047,-36.30913 -28.60822,-31.5787 -28.53644,-30.18916 -83.0782,75.4768 -78.63082,65.5865 33.04219,-55.1882 82.15101,27.9702 107.47651,53.4983 -1.36503,7.8165 45.78267,29.0713 1.15919,23.0966 -29.51066,-4.2824 -50.10142,-19.0673 -81.00586,-6.1828 -40.90166,7.7608 -44.72247,-37.9962 -43.16828,-55.2897 -50.61229,-5.3358 -35.58319,55.625 -21.57991,84.6414 -0.3525,16.1935 17.6876,5.5778 44.75307,-3.3507 28.89803,1.8198 61.301,9.6729 84.53104,18.7403 30.87972,6.998 85.59612,-6.1073 128.77832,2.4027 49.7478,-6.6032 51.5886,32.0342 45.0964,48.339 -8.4622,27.2035 -23.449,63.6362 -55.238,75.7267 -35.1268,25.36399 -46.1393,21.88409 -80.48097,22.81489 -25.20158,-8.80989 -41.7644,7.8099 -76.69069,-6.02409 -39.67689,-35.7833 -106.80685,-75.4743 -104.18039,-129.8642 0.6895,-38.2047 -53.03638,-95.7542 -18.81766,-117.6761 18.64943,-54.24 8.87677,-82.56118 -8.84103,-100.53408 -37.39576,-26.67803 -54.6715,-97.74934 -79.15948,-100.92473 9.46693,-20.98544 8.97457,-19.77744 -0.81893,-39.36316 9.36608,-24.7236 42.78744,9.71078 37.0457,14.58906 40.7427,-24.49634 66.03018,21.92919 97.02837,39.45535 44.47626,8.2076 99.62429,-41.54038 128.91742,-46.477 -2.63197,-51.15485 55.58796,-19.37891 63.82846,-43.20426 55.3842,-1.92181 11.4321,58.87985 33.9966,94.00026 5.2981,-10.7134 -5.3414,-66.36975 28.5339,-23.99903 11.8099,37.57291 36.3385,106.46298 87.151,93.94498 -1.4407,-5.56935 -45.7734,-19.13832 -47.3195,-35.97782 -6.1371,-23.69256 5.3763,-20.65406 35.7208,-17.02884 63.7509,25.64265 8.9506,-49.14551 -17.0806,-24.94101 -50.6315,-21.01756 8.7054,-8.74278 29.7674,-20.39781 20.0804,-21.02672 77.7332,27.19028 72.3028,-30.23838 16.3794,-33.39381 24.3923,-43.36314 50.597,-71.97122 z M 85.001319,466.00183 c 12.86708,34.27844 7.79121,70.51016 13.37608,106.13373 -4.96588,55.9526 76.498551,-18.03053 33.120511,20.88656 -3.84064,26.25935 -10.27613,62.52463 -29.86101,20.43151 -16.980821,-41.75366 -21.212021,-87.69295 -25.778341,-132.14427 -0.28013,-6.21756 2.99113,-13.14597 9.14276,-15.30753 z m 138.458271,5.43825 c 19.49384,5.16866 -10.30066,44.73791 -29.36686,39.90688 -1.12446,-17.14066 16.88469,-31.2921 29.36686,-39.90688 z m 203.54004,31.75047 c 86.02066,19.69975 -57.94722,92.33445 -77.57869,27.67182 -23.93267,-31.34916 64.53047,1.399 77.57869,-27.67182 z m -308.81349,8.75247 c 32.97149,23.84607 3.36976,55.01245 -6.44405,29.53897 2.29229,-9.66372 -1.61006,-22.27969 6.44405,-29.53897 z m 523.19337,226.39159 c 48.4639,-6.5149 71.145,123.1155 38.1287,99.6644 -26.035,-28.6217 -75.8482,-25.8905 -79.3514,-67.9944 19.5502,-4.2666 22.0827,-28.2442 41.2227,-31.67 z m -200.34741,163.603 c 34.48516,16.2595 69.72066,52.5706 107.40504,28.0431 19.10237,-9.1958 67.33827,-2.3693 62.77577,-29.6732 -26.1208,-13.8198 -50.8791,-3.0701 -69.57155,-5.3605 -8.97559,-7.0254 -27.67891,-3.0568 -50.68907,-9.6092 -29.83145,-0.3663 -69.93709,-13.5335 -49.92019,16.5998 z M 148.00182,1162.0102 c -20.72534,1.6778 -20.72536,1.6779 0,0 z m 11.71875,1.2818 12.62207,4.9377 z m -50.18312,11.1389 -3.74145,3.2959 z m 79.94386,8.0078 4.37622,4.8339 z m 5.54199,6.5124 1.15357,3.0457 z m -98.095711,0.7141 -3.57666,9.5704 z m 99.151621,3.4668 -0.95215,2.2095 z m -53.1128,3.3875 -3.93676,1.3183 z m -3.93676,1.3183 -2.948,1.6541 z m 16.41845,0.7508 9.07593,7.1594 z m -62.658691,3.2287 -0.6775,5.3834 z m 39.422611,0.8973 -2.53907,3.3142 2.54517,-3.3142 z m -4.28467,7.0312 -0.75684,6.0669 z m -0.75684,6.0669 0.97657,4.187 z m -35.168461,-5.8105 0.44556,11.7004 z m 37.335211,12.2863 1.88599,2.6001 z m 1.89209,2.6062 1.45264,1.5686 z m -37.701421,3.4729 1.83105,5.9693 z m 570.751981,16.6321 c -3.1718,25.8069 -3.1726,25.8071 0,0 z m -488.74514,12.8784 4.24805,5.4566 z m 485.25394,13.3423 c -5.2009,21.4864 -5.2006,21.4863 0,0 z m -4.1626,16.1682 -2.5024,5.8716 z m 39.5447,-15.7593 c -7.4108,37.269 -7.4119,37.2685 0,0 z m -511.71269,1.0743 1.05591,3.4973 z m -38.04322,5.719 1.5564,1.77 z m 39.93531,1.9226 0.64697,7.6538 z m -37.04835,1.654 1.78833,3.6133 z m 411.59675,4.5288 0.708,10.2539 z m -465.069651,0.7874 c -10.26927,2.1454 4.881121,0.1732 0,0 z m 2.90527,1.593 5.694581,8.0933 z m 553.912381,7.0923 -4.5837,5.957 z m -90.7959,2.2522 1.6846,7.0496 z m 1.6846,7.0496 3.5156,8.0627 z m 126.6235,-5.597 -4.5471,11.3221 z m -4.5471,11.3221 -6.2072,10.0219 z m -615.612841,-8.0262 1.33667,4.3152 z m 1.33667,4.3152 2.01417,4.0588 z m 2.01417,4.0588 4.99877,7.6234 z m 531.646801,-7.6232 6.0852,4.2175 z m 40.3198,0.6591 -6.2134,3.8147 z m -353.74759,0.6104 1.40381,1.5259 z m -105.896,0.2441 -1.59913,6.25 z m -41.43067,1.1292 -3.24097,2.1973 z m 148.73048,0.1587 2.36817,6.4453 z m 321.43558,2.8747 7.0251,1.6663 z m -477.32549,0.6897 -4.10156,0.763 z m -56.805431,11.5174 4.45557,5.2246 z m 493.139721,1.1413 3.0029,3.418 z m 103.4912,1.2207 c -18.3745,16.1805 -18.3744,16.1806 0,0 z m -14.1968,11.8653 -5.7129,3.0151 z m -488.40944,-7.7515 -2.48414,2.4597 z m -2.48414,2.4597 -5.81665,4.657 z m -84.613041,-1.2085 10.79712,8.2947 z m 10.79712,8.2947 7.635501,3.5217 z m 275.555441,-3.1311 -2.22169,5.1697 z m -2.22169,5.1697 -1.03759,1.3122 z m -68.2434,-1.8372 1.42822,3.0213 z m -85.35767,0.3418 -1.17188,1.6968 z m -1.17188,1.6968 c -10.91873,4.9194 -10.92439,4.9162 0,0 z m 381.6773,0.47 6.0241,1.8615 z m -293.46928,0.8972 0.73852,0.7141 z m 64.81324,0.1465 -2.7954,0.5615 z m 278.05174,0.9582 -6.7077,1.5991 z m -341.38793,0.012 6.75049,0.6165 z m -196.45998,0.1526 c 29.77175,4.3352 29.77182,4.3352 0,0 z m 22.58911,2.6917 13.7085,-1.6724 z m 473.6329,-2.5696 c 20.7759,3.1451 20.7761,3.1449 0,0 z m -260.18684,10.1501 2.99072,2.6123 z m 90.7776,5.9815 -2.60009,2.2094 z m 213.01884,7.0678 12.3047,2.1363 z m -358.05059,4.2176 -6.09131,2.2644 z m -6.09131,2.2644 -1.64795,1.9592 z m -1.64795,1.9592 -7.97119,11.7004 z m 300.64085,3.772 -11.8591,7.7881 z m 119.2383,7.0007 4.1932,2.4842 z m -131.1035,0.7874 -10.73,9.3017 z m -10.73,9.3017 -4.8828,5.1636 z m -4.8828,5.1697 -8.65476,11.2732 z m 78.2898,6.7688 -13.4704,2.063 z m -13.4704,2.063 -8.3558,2.8137 z m -12.3291,4.6386 c -19.2225,12.7493 -19.2225,12.7497 0,0 z m -23.169,20.1844 -4.9255,8.0139 z m -6.8909,12.0544 -4.4616,13.7024 z m -4.4616,13.7024 c -3.6478,26.9425 -3.6466,26.9429 0,0 z m -2.3926,20.4834 0.4333,10.2722 z m 0.4333,10.2722 2.5635,13.7574 z m -314.76439,-1.4953 -1.87378,6.543 z m -1.87378,6.543 c -4.88515,36.4304 -4.88551,36.4329 0,0 z m 197.28396,-6.543 9.03319,11.7859 z m 122.56471,17.3828 3.0029,7.6477 z m 116.6565,17.2974 c -18.7709,12.9281 -18.7708,12.9289 0,0 z m -94.4519,11.4929 8.3862,4.9438 z m 12.5854,6.7688 10.8338,2.9175 z m -539.147971,19.3054 c -2.73994,31.5786 -2.7396,31.5759 0,0 z m 621.716371,5.8655 -1.0376,6.2256 z m 172.5769,2.8869 -2.3193,13.4278 z m -2.3193,13.4278 -1.5625,1.0803 z m -1.5625,1.0803 -4.2908,0.5249 z m -170.2881,-9.9304 -9.8572,4.7851 z m -334.21637,4.8462 -1.01928,3.1677 z m 321.24027,0.9033 c -23.0055,5.86 -46.9863,11.685 0,0 z m -29.834,6.8909 -9.1675,0.7812 z m -9.1675,0.7812 -14.3005,-0.2624 z m -326.36107,-5.31 0.61035,0.9155 z m 42.51099,0.708 -4.52272,1.5686 z m 249.01128,1.6113 13.5986,2.185 z m -120.76421,9.9915 5.08425,6.4086 z m 6.51247,7.8613 3.22875,2.3437 z"
     sodipodi:nodetypes="cccccccccccccccccccccccccccccccccccccccccccccccccccccccccccccccccccccccccccccccccccccccccccccccccccccccccccccccccccccccccccccccccccccccccccccccccccccccccccccccccccccccccccccccccccccccccccccccccccccccccccccccccccccccccccccccccccccccccccccccccccccccccccccccccccccccccccccccccccccccccccccccccccccccccccccccccccccccccccccccccccccccccccccccccccccccccccccccccccccccccccccccccccccccccccccccccccccccccccccccccccccccccccccccccccccccccccccccccccccccccccccccccccccccccccccccccccccccccccccccccccc" />
  <path
     id="Selection #2-7"
     style="fill:#ff0000;fill-opacity:1;stroke-width:3.12501"
     d="M 60.001309,1129.0024 V 1615.001 H 923.99681 v -485.9986 h -621.14269 -12.854 z" />
  <g
     aria-label="SAMUEL"
     id="text845"
     style="font-style:italic;font-weight:500;font-size:300px;line-height:1.25;font-family:Futura;-inkscape-font-specification:'Futura Medium Italic';letter-spacing:-15.625px;fill:#ffffff;stroke-width:3.125"
     transform="matrix(0.7686764,0,0,0.7686764,-65.343301,374.15489)" />
  <g
     aria-label="LYNCH"
     id="text877"
     style="font-style:italic;font-weight:500;font-size:300px;line-height:1.25;font-family:Futura;-inkscape-font-specification:'Futura Medium Italic';letter-spacing:-15.62500000000000000px;fill:#ffffff;stroke-width:3.125"
     transform="matrix(0.95763794,0,0,0.95763794,-172.10237,216.34978)">
    <path
       id="path887"
       style="fill:#ffffff;stroke-width:3.125"
       d="m 1128.2686,1197.7805 -27.832,226.1719 h -33.5449 l 13.623,-110.4492 h -93.45701 l -13.47656,110.4492 h -33.54492 l 27.83203,-226.1719 h 33.39846 l -10.83987,88.6231 h 93.45707 l 10.8398,-88.6231 z m -191.79684,20.2149 -4.54102,36.6211 q -29.44336,-29.8829 -70.16602,-29.8829 -35.88867,0 -58.00781,25.4883 -22.26562,25.3418 -22.26562,66.0645 0,38.0859 21.38672,59.4726 21.24023,21.2403 60.05859,21.2403 32.37305,0 57.12891,-19.9219 l -4.83399,39.6973 q -31.20117,11.5722 -58.1543,11.5722 -49.21875,0 -79.24804,-31.2011 -30.0293,-30.9083 -30.0293,-82.3243 0,-52.4414 31.93359,-87.0117 32.08008,-34.5703 80.56641,-34.5703 38.23242,0 76.17188,24.7559 z m -201.9043,-20.2149 -29.58984,241.6992 -137.25586,-175.1953 -19.62891,159.668 h -33.54492 l 29.44336,-238.4766 137.25586,174.9024 19.92187,-162.5977 z m -289.94141,124.9512 -12.45117,101.2207 h -33.54492 l 12.89062,-103.5645 -58.74023,-122.6074 h 36.03516 l 41.74804,89.9414 59.32617,-89.9414 h 38.5254 z m -124.70703,-124.9512 -23.87695,194.9707 h 64.01367 l -3.80859,31.2012 h -97.5586 l 27.83203,-226.1719 z M 1096.053,991.23361 1076.8874,1147.7326 h 51.3825 l -3.0571,25.0446 h -78.3083 l 22.3402,-181.54359 z m -48.7174,0 -3.0571,25.04459 h -66.6678 l -5.76147,47.0319 h 66.66787 l -2.8219,23.2809 h -66.66787 l -7.52512,61.1416 h 66.66789 l -3.1747,25.0446 h -93.47608 l 22.34017,-181.54359 z m -124.55642,0 -13.16895,107.46809 q -4.46803,35.5092 -16.69636,51.9704 -19.63586,25.6324 -54.55712,25.6324 -27.98405,0 -46.67927,-16.9314 -18.57764,-17.1667 -18.57764,-42.564 0,-5.4087 0.35274,-11.4053 0.47032,-5.9966 1.29338,-12.6987 l 12.46348,-101.47149 h 26.80825 L 801.20146,1096.115 q -0.58789,4.7032 -0.94064,8.7009 -0.23515,3.9977 -0.23515,7.4075 0,18.1074 10.11187,28.572 10.22946,10.4646 27.74888,10.4646 20.45893,0 31.04113,-13.1689 10.5822,-13.2866 14.34476,-43.1519 l 12.69865,-103.70559 z m -194.98684,-17.16667 14.93267,198.71026 h -25.63245 l -8.11302,-115.6987 -70.31285,128.3973 -38.91898,-128.3973 -36.21465,115.6987 h -27.51372 l 62.78772,-194.35981 45.97379,148.38601 z m -305.51206,156.02866 -22.10505,42.6816 H 370.8978 l 100.41334,-194.47741 62.67014,194.47741 h -28.10162 l -13.16896,-42.6816 z m 11.64041,-23.2808 h 51.26489 l -19.51828,-64.5515 z m -50.83376,-92.4179 -17.98974,17.1667 q -12.81622,-18.8128 -29.395,-18.8128 -11.99316,0 -19.87102,7.4075 -7.87786,7.4076 -7.87786,18.5776 0,8.9361 5.40868,15.4031 2.70434,3.057 7.87786,6.9371 5.2911,3.8802 13.16896,8.5834 23.39842,13.6393 31.27628,24.6918 7.99544,11.1701 7.99544,29.2774 0,23.516 -15.52056,38.096 -15.2854,14.5798 -40.32995,14.5798 -20.22376,0 -34.21578,-8.7008 -7.0548,-4.3505 -13.16896,-11.2877 -6.11416,-7.0549 -11.758,-17.0492 l 20.45892,-13.8744 q 8.34818,14.6975 16.34362,20.2238 7.99545,5.5263 20.81167,5.5263 14.22718,0 22.22262,-7.5252 8.11302,-7.5251 8.11302,-21.3996 0,-9.5239 -5.879,-16.1084 -2.9395,-3.4098 -8.8185,-7.6427 -5.76143,-4.2329 -14.6975,-9.524 -20.45893,-12.1108 -28.57195,-23.0457 -7.76028,-10.9349 -7.76028,-27.3961 0,-21.9874 15.28541,-36.4498 15.2854,-14.57995 38.56624,-14.57995 15.16782,0 25.86761,6.11417 10.93493,6.11417 22.45777,20.81168 z" />
  </g>
</svg>
